<svg xmlns="http://www.w3.org/2000/svg" xmlns:xlink="http://www.w3.org/1999/xlink" viewBox="0 0 86.5 101" fill="#fff" fill-rule="evenodd" stroke="#000" stroke-linecap="round" stroke-linejoin="round"><use xlink:href="#A" x=".5" y=".5"/><symbol id="A" overflow="visible"><g stroke="none"><path d="M49.249 36.119l-10.397 9.314-9.647-18.734 4.992-10.774c1.264-2.16 3.325-2.164 4.589 0l10.463 20.194z" fill="#ffa000"/><path d="M38.852 45.432L.001 80.229l29.204-53.53z" fill="#f57f17"/><path d="M60.62 21.883c1.857-1.719 3.778-1.133 4.267 1.303L75 79.763 41.477 99.106c-1.173.624-4.28.894-4.28.894s-2.836-.326-3.916-.904L0 80.227l60.62-58.344z" fill="#ffca28"/><path d="M29.205 26.698L.001 80.229 13.009 1.993c.479-2.437 1.92-2.672 3.206-.521l12.991 25.226z" fill="#ffa000"/><circle cx="67.5" cy="77.5" fill="#645a59" r="17.5"/><path d="M62.608 84.418l-1.957 1.957-3.774-3.774V72.399l3.634-3.774 2.096 2.096-2.795 2.656v8.246l2.795 2.795z"/><circle cx="63.587" cy="77.57" r="1.258"/><circle cx="67.5" cy="77.57" r="1.258"/><circle cx="71.414" cy="77.57" r="1.258"/><path d="M72.392 84.418l1.817 1.957 3.913-3.774V72.399l-3.774-3.774-1.957 2.096 2.795 2.656v8.246l-2.795 2.795z"/></g></symbol></svg>