<svg xmlns="http://www.w3.org/2000/svg" width="57" height="63" stroke="#000" stroke-linecap="round" stroke-linejoin="round" fill="#fff" fill-rule="evenodd"><path d="M54.9779 30.6944c0-3.7533-2.5807-6.9115-6.0448-7.8133L56.6929 0H18.228l7.7773 22.9541c-3.356.9739-5.8286 4.0786-5.8286 7.7598 0 2.7074 1.3634 5.107 3.4105 6.5863a21.486 21.486 0 0 1-2.8145 3.2303c-2.0032 1.8767-4.2227 3.3112-6.6223 4.285-2.1659-1.4608-3.1037-4.0415-2.2555-6.3515 3.3112-1.0109 5.702-4.0961 5.702-7.7228 0-4.4574-3.6267-8.0666-8.0666-8.0666-4.4574 0-8.0831 3.6267-8.0831 8.0831a8.025 8.025 0 0 0 2.3461 5.666l-.3896.7762C2.1961 39.6901.823 42.5055.3 45.6725-.7469 51.9881.9681 57.059 5.1012 59.9281c2.3373 1.6068 4.8888 2.4181 7.6507 2.4181 4.7457 0 9.5634-2.3821 14.2185-4.6921 3.3112-1.642 6.7489-3.356 10.1234-4.1877 1.2465-.3067 2.5447-.4869 3.9149-.6856 2.7795-.3973 5.6485-.8122 8.2292-2.31 3.0132-1.75 5.0709-4.6746 5.6659-8.0305.451-2.5808 0-5.1791-1.1549-7.4531.7762-1.2465 1.2076-2.7073 1.2076-4.285zm-3.5186 0c0 2.5087-2.0392 4.548-4.5479 4.548s-4.548-2.0393-4.548-4.548c0-.8122.2162-1.5874.5843-2.2555a4.923 4.923 0 0 1 .5064-.7206c.1883-.2209.4003-.4203.6321-.5951l.0194-.0194.4695-.3253s.0194 0 .0194-.0195c.0721-.036.1442-.0905.2162-.1266.0195 0 .0361-.0195.0546-.0195.072-.036.1626-.072.2532-.0973a3.699 3.699 0 0 0 .2532-.1072c.0195 0 .036-.0194.0545-.0194.0721-.0195.1441-.0546.2162-.0721.0195 0 .0546-.0195.0721-.0195l.2532-.0545h.0195l.2707-.0546c.0195 0 .0545 0 .0721-.0194.072 0 .1441-.0195.2162-.0195h.0905c.0906 0 .1802-.0195.2883-.0195h.2337c.0667-.0028.1335.0034.1987.0185h.036c.1442.0195.2883.036.4334.0721 2.1115.452 3.6218 2.3155 3.6267 4.4749zM23.2726 3.6092H51.658l-6.5249 19.2183c-.2708.0545-.5415.1441-.8122.2337L37.4648 9.0765l-6.8755 13.8951c-.2707-.0905-.559-.1441-.8473-.1986zm12.9019 25.5154a8.006 8.006 0 0 0-2.4347-4.3308l3.7357-7.5427 3.7718 7.7053c-1.1481 1.1353-1.9331 2.586-2.2554 4.1682zm-9.0405-2.8515l.2532-.0546h.0546c.072-.0195.1441-.0195.2162-.036h.072c.0721 0 .1266-.0195.1987-.0195h.7041c.0721 0 .1266.0195.1802.0195.036 0 .0545 0 .0904.0195.0722.0194.1267.0194.1988.036.0194 0 .036 0 .0721.0195l.2532.0545c.0906.0195.1626.036.2337.0721.0195 0 .036.0195.0721.0195.0545.0194.1266.036.1801.072.0195 0 .0361.0195.0546.0195.072.036.1441.0545.2162.0906h.0195c.0836.0312.1626.0738.2347.1266.0905.036.1626.0905.2337.1266.0195 0 .0195.0195.036.0195.0721.036.1266.0905.1986.1266l.0196.0194c.2162.1627.4148.3428.6135.523l.0195.0195c.1801.1987.3603.4148.5064.6496a4.539 4.539 0 0 1 .7401 2.4901c0 2.5087-2.0392 4.548-4.5479 4.548s-4.548-2.0393-4.548-4.548c-.0195-2.1113 1.4433-3.8974 3.428-4.4019zm-17.7565-.1266c2.5086 0 4.5479 2.0392 4.5479 4.5479s-2.0393 4.548-4.5479 4.548-4.548-2.0393-4.548-4.548 2.0393-4.5479 4.548-4.5479zm41.9737 15.6452c-.3973 2.31-1.8211 4.3308-3.9149 5.5393-1.9672 1.1366-4.3854 1.4979-6.9291 1.8504-1.3897.1987-2.8515.4149-4.2587.7577-3.7533.9203-7.3625 2.7249-10.8636 4.4574-4.4749 2.2204-8.6966 4.3123-12.6135 4.3123-2.0393 0-3.8614-.5775-5.594-1.7861-3.9694-2.7424-3.7717-7.8854-3.3111-10.7009.4334-2.6343 1.642-5.107 2.797-7.4696.072-.1441.1266-.2707.1986-.4148a7.014 7.014 0 0 0 1.2466.3252c-.6856 3.8254 1.2631 7.7774 5.0524 9.7261l.6856.3603.7402-.2707c3.1582-1.12 6.0808-2.9411 8.6616-5.3777a24.252 24.252 0 0 0 3.7533-4.4574c.4148.072.8297.0905 1.2465.0905 3.7532 0 6.9116-2.5807 7.8134-6.0448h3.0316c.9018 3.4826 4.0611 6.0448 7.8134 6.0448a7.986 7.986 0 0 0 4.0786-1.119c.4694 1.3635.6135 2.761.3603 4.1682z" stroke="none" fill="#99424f" fill-rule="nonzero"/></svg>